<?xml version="1.0" encoding="utf-8"?>
<!-- Generator: Adobe Illustrator 25.1.0, SVG Export Plug-In . SVG Version: 6.00 Build 0)  -->
<svg version="1.1" id="Capa_1" xmlns="http://www.w3.org/2000/svg" xmlns:xlink="http://www.w3.org/1999/xlink" x="0px" y="0px"
	 viewBox="0 0 62.1 60.9" style="enable-background:new 0 0 62.1 60.9;" xml:space="preserve">
<style type="text/css">
	.st0{fill:#D1AF1D;stroke:#1D1D1B;stroke-width:3;stroke-miterlimit:10;}
	.st1{fill:#BE9B07;stroke:#FFFFFF;stroke-width:3;stroke-miterlimit:10;}
	.st2{stroke:#1D1D1B;stroke-miterlimit:10;}
</style>
<circle class="st0" cx="31.1" cy="30.3" r="27.1"/>
<circle class="st1" cx="31.1" cy="30.3" r="21.3"/>
<circle class="st0" cx="31.1" cy="30.3" r="18.4"/>
<g>
	<g>
		<path class="st2" d="M32.9,37.9c-2.9,0-5.5-1.7-6.8-4.1h6.8v-2.4h-7.5c-0.1-0.4-0.1-0.8-0.1-1.2s0-0.8,0.1-1.2h7.5v-2.4h-6.8
			c1.3-2.4,3.8-4.1,6.8-4.1c1.9,0,3.6,0.7,5,1.8l2.1-2.1c-1.9-1.7-4.3-2.7-7.1-2.7c-4.6,0-8.5,2.9-10,7.1h-4.1v2.4h3.6
			c0,0.4-0.1,0.8-0.1,1.2s0,0.8,0.1,1.2h-3.6v2.4H23c1.5,4.1,5.4,7.1,10,7.1c2.7,0,5.2-1,7.1-2.7l-2.1-2.1
			C36.6,37.2,34.8,37.9,32.9,37.9z"/>
	</g>
</g>
</svg>
