<?xml version="1.0" encoding="utf-8"?>
<!-- Generator: Adobe Illustrator 25.1.0, SVG Export Plug-In . SVG Version: 6.00 Build 0)  -->
<svg version="1.1" id="Capa_1" xmlns="http://www.w3.org/2000/svg" xmlns:xlink="http://www.w3.org/1999/xlink" x="0px" y="0px"
	 viewBox="0 0 442.1 119.9" style="enable-background:new 0 0 442.1 119.9;" xml:space="preserve">
<style type="text/css">
	.st0{fill:#1D1D1B;}
	.st1{fill:#FFFFFF;}
</style>
<g>
	<g>
		<path class="st0" d="M198.2,102l-16.6-23l-6.6,6.2V102h-16.2V12.9H175v24.4c0,11.7-0.2,22.5-0.7,31.3c3.8-4,7.3-7.7,10.8-11.3
			l9.5-10h19.9l-22.1,21.3l24.5,33.3H198.2z"/>
		<path class="st0" d="M277.3,102h-15.8v-8.9c-4.6,7.4-11.3,11.2-18.8,11.2c-11.7,0-19-7.7-19-22.1V47.4h16.2v30.4
			c0,9,3.2,12.6,9.4,12.6c6.8,0,11.9-6.2,11.9-16.4V47.4h16.2V102z"/>
		<path class="st0" d="M293.7,47.4h15.9v9c4.6-7.4,11.1-11.3,19.1-11.3c12.4,0,19.8,7.7,19.8,21.6V102h-16.2V72.1
			c0-9.5-3.2-13.1-10-13.1c-7.4,0-12.5,6.4-12.5,16.3V102h-16.2V47.4z"/>
		<path class="st0" d="M377.8,77.3V78c0,8.6,5.8,14.1,13.7,14.1c5.5,0,9.5-2.8,12.6-7.7l1-0.4l12.8,5c-5.1,9.7-14.2,15.2-26.9,15.2
			c-18.1,0-29.8-12.4-29.8-29.5c0-17.4,12-29.6,29.4-29.6c16.9,0,28.7,11.4,28.7,29.8c0,0.7,0,1.2-0.1,2.4H377.8z M378,68.8h25.2
			c-0.5-7.7-5.2-12.2-12.3-12.2C384.1,56.7,379,61,378,68.8z"/>
	</g>
	<g>
		<path class="st0" d="M437.2,45.6c0,4.4-3.4,7.8-7.9,7.8c-4.4,0-8-3.4-8-7.8c0-4.3,3.5-7.7,8-7.7C433.7,37.9,437.2,41.3,437.2,45.6
			z M423.2,45.6c0,3.4,2.6,6.2,6,6.2c3.4,0,5.9-2.7,5.9-6.1c0-3.4-2.5-6.2-6-6.2S423.2,42.2,423.2,45.6z M428,49.7h-1.8V42
			c0.7-0.1,1.7-0.2,3-0.2c1.5,0,2.1,0.2,2.7,0.6c0.4,0.3,0.8,0.9,0.8,1.7c0,0.9-0.7,1.5-1.6,1.8v0.1c0.8,0.3,1.2,0.9,1.4,1.9
			c0.2,1.2,0.4,1.7,0.6,1.9h-1.9c-0.2-0.3-0.4-1-0.6-1.9c-0.1-0.9-0.6-1.2-1.6-1.2H428V49.7z M428,45.3h0.9c1,0,1.8-0.3,1.8-1.1
			c0-0.7-0.5-1.2-1.7-1.2c-0.5,0-0.8,0-1,0.1V45.3z"/>
	</g>
</g>
<g>
	<path class="st0" d="M62.4,115.6L14.2,87.5V31.4L62.4,3.4l48.2,28.1v56.1L62.4,115.6z M22.7,82.6l39.7,23.1L102,82.6V36.3
		L62.4,13.2L22.7,36.3V82.6z"/>
	<g>
		<ellipse class="st0" cx="106.3" cy="36.3" rx="13.8" ry="13.5"/>
		<path class="st1" d="M106.3,51.7c-8.6,0-15.6-6.9-15.6-15.4s7-15.4,15.6-15.4c8.6,0,15.6,6.9,15.6,15.4S114.9,51.7,106.3,51.7z
			 M106.3,24.7c-6.6,0-11.9,5.2-11.9,11.7S99.7,48,106.3,48c6.6,0,11.9-5.2,11.9-11.7S112.8,24.7,106.3,24.7z"/>
	</g>
	<g>
		<ellipse class="st0" cx="18.5" cy="85.1" rx="13.8" ry="13.5"/>
		<path class="st1" d="M18.5,100.4c-8.6,0-15.6-6.9-15.6-15.4s7-15.4,15.6-15.4s15.6,6.9,15.6,15.4S27.1,100.4,18.5,100.4z
			 M18.5,73.4c-6.6,0-11.9,5.2-11.9,11.7c0,6.4,5.3,11.7,11.9,11.7s11.9-5.2,11.9-11.7C30.4,78.6,25,73.4,18.5,73.4z"/>
	</g>
	<g>
		<ellipse class="st0" cx="62.4" cy="59.5" rx="13.8" ry="13.5"/>
		<path class="st1" d="M62.4,74.8c-8.6,0-15.6-6.9-15.6-15.4s7-15.4,15.6-15.4S78,51,78,59.5S71,74.8,62.4,74.8z M62.4,47.8
			c-6.6,0-11.9,5.2-11.9,11.7s5.3,11.7,11.9,11.7s11.9-5.2,11.9-11.7S69,47.8,62.4,47.8z"/>
	</g>
</g>
</svg>
