<?xml version="1.0" encoding="utf-8"?>
<!-- Generator: Adobe Illustrator 25.1.0, SVG Export Plug-In . SVG Version: 6.00 Build 0)  -->
<svg version="1.1" id="Capa_1" xmlns="http://www.w3.org/2000/svg" xmlns:xlink="http://www.w3.org/1999/xlink" x="0px" y="0px"
	 viewBox="0 0 289.4 294.4" style="enable-background:new 0 0 289.4 294.4;" xml:space="preserve">
<style type="text/css">
	.st0{fill:#1D1D1B;}
	.st1{fill:#FFFFFF;}
</style>
<g>
	<g>
		<path class="st0" d="M48.2,289.8l-16.6-23l-6.6,6.2v16.8H8.8v-89.1h16.2v24.4c0,11.7-0.2,22.5-0.7,31.3c3.8-4,7.3-7.7,10.8-11.3
			l9.5-10h19.9l-22.1,21.3l24.5,33.3H48.2z"/>
		<path class="st0" d="M127.2,289.8h-15.8V281c-4.6,7.4-11.3,11.2-18.8,11.2c-11.7,0-19-7.7-19-22.1v-34.7h16.2v30.4
			c0,9,3.2,12.6,9.4,12.6c6.8,0,11.9-6.2,11.9-16.4v-26.6h16.2V289.8z"/>
		<path class="st0" d="M143.6,235.3h15.9v9c4.6-7.4,11.1-11.3,19.1-11.3c12.4,0,19.8,7.7,19.8,21.6v35.2h-16.2v-29.9
			c0-9.5-3.2-13.1-10-13.1c-7.4,0-12.5,6.4-12.5,16.3v26.7h-16.2V235.3z"/>
		<path class="st0" d="M227.7,265.2v0.7c0,8.6,5.8,14.1,13.7,14.1c5.5,0,9.5-2.8,12.6-7.7l1-0.4l12.8,5
			c-5.1,9.7-14.2,15.2-26.9,15.2c-18.1,0-29.8-12.4-29.8-29.5c0-17.4,12-29.6,29.4-29.6c16.9,0,28.7,11.4,28.7,29.8
			c0,0.7,0,1.2-0.1,2.4H227.7z M228,256.7h25.2c-0.5-7.7-5.2-12.2-12.3-12.2C234,244.5,228.9,248.9,228,256.7z"/>
	</g>
	<g>
		<path class="st0" d="M287.1,233.5c0,4.4-3.4,7.8-7.9,7.8c-4.4,0-8-3.4-8-7.8c0-4.3,3.5-7.7,8-7.7
			C283.7,225.7,287.1,229.2,287.1,233.5z M273.2,233.5c0,3.4,2.6,6.2,6,6.2c3.4,0,5.9-2.7,5.9-6.1c0-3.4-2.5-6.2-6-6.2
			C275.7,227.3,273.2,230.1,273.2,233.5z M278,237.6h-1.8v-7.7c0.7-0.1,1.7-0.2,3-0.2c1.5,0,2.1,0.2,2.7,0.6
			c0.4,0.3,0.8,0.9,0.8,1.7c0,0.9-0.7,1.5-1.6,1.8v0.1c0.8,0.3,1.2,0.9,1.4,1.9c0.2,1.2,0.4,1.7,0.6,1.9H281c-0.2-0.3-0.4-1-0.6-1.9
			c-0.1-0.9-0.6-1.2-1.6-1.2H278V237.6z M278,233.2h0.9c1,0,1.8-0.3,1.8-1.1c0-0.7-0.5-1.2-1.7-1.2c-0.5,0-0.8,0-1,0.1V233.2z"/>
	</g>
</g>
<g>
	<path class="st0" d="M143.6,196L61,147.9V51.8l82.6-48.1l82.6,48.1v96.1L143.6,196z M75.7,139.5l68,39.6l68-39.6V60.2l-68-39.6
		l-68,39.6V139.5z"/>
	<g>
		<ellipse class="st0" cx="218.9" cy="60.1" rx="23.6" ry="23.2"/>
		<path class="st1" d="M218.9,86.5c-14.8,0-26.8-11.8-26.8-26.4s12-26.4,26.8-26.4c14.8,0,26.8,11.8,26.8,26.4
			S233.7,86.5,218.9,86.5z M218.9,40.1c-11.2,0-20.4,9-20.4,20s9.2,20,20.4,20c11.2,0,20.4-9,20.4-20S230.2,40.1,218.9,40.1z"/>
	</g>
	<g>
		<ellipse class="st0" cx="68.4" cy="143.7" rx="23.6" ry="23.2"/>
		<path class="st1" d="M68.4,170c-14.8,0-26.8-11.8-26.8-26.4s12-26.4,26.8-26.4s26.8,11.8,26.8,26.4S83.1,170,68.4,170z
			 M68.4,123.7c-11.2,0-20.4,9-20.4,20s9.2,20,20.4,20s20.4-9,20.4-20S79.6,123.7,68.4,123.7z"/>
	</g>
	<g>
		<ellipse class="st0" cx="143.7" cy="99.8" rx="23.6" ry="23.2"/>
		<path class="st1" d="M143.7,126.2c-14.8,0-26.8-11.8-26.8-26.4s12-26.4,26.8-26.4s26.8,11.8,26.8,26.4S158.5,126.2,143.7,126.2z
			 M143.7,79.8c-11.2,0-20.4,9-20.4,20s9.2,20,20.4,20c11.2,0,20.4-9,20.4-20S155,79.8,143.7,79.8z"/>
	</g>
</g>
</svg>
